<!DOCTYPE svg PUBLIC "-//W3C//DTD SVG 1.1//EN" "http://www.w3.org/Graphics/SVG/1.1/DTD/svg11.dtd">
<svg version="1.1" xmlns="http://www.w3.org/2000/svg" width="32" height="32" viewBox="0 0 32 32">
  <style>
    .favicon { fill: #1D4ED8; }
  </style>
  <circle class="favicon" cx="16" cy="16" r="14" />
  <path fill="white" d="M16,6C10.5,6,6,10.5,6,16s4.5,10,10,10s10-4.5,10-10S21.5,6,16,6z M16,24c-4.4,0-8-3.6-8-8s3.6-8,8-8s8,3.6,8,8S20.4,24,16,24z"/>
  <path fill="white" d="M20,12c-0.8,0-1.5,0.7-1.5,1.5c0,0.3,0.1,0.5,0.2,0.8L16,16.9l-1-1c0.1-0.2,0.2-0.5,0.2-0.8c0-0.8-0.7-1.5-1.5-1.5s-1.5,0.7-1.5,1.5c0,0.3,0.1,0.5,0.2,0.8l2.8,2.8c0.3,0.3,0.7,0.3,1,0l4-4c0.2-0.2,0.2-0.5,0.2-0.8C21.5,12.7,20.8,12,20,12z"/>
</svg>