<!DOCTYPE svg PUBLIC "-//W3C//DTD SVG 1.1//EN" "http://www.w3.org/Graphics/SVG/1.1/DTD/svg11.dtd">
<svg version="1.1" xmlns="http://www.w3.org/2000/svg" width="32" height="32" viewBox="0 0 32 32">
  <style>
    .logo-icon { fill: #1D4ED8; }
  </style>
  <g class="logo-icon">
    <path d="M16,3C8.8,3,3,8.8,3,16s5.8,13,13,13s13-5.8,13-13S23.2,3,16,3z M16,26c-5.5,0-10-4.5-10-10S10.5,6,16,6s10,4.5,10,10S21.5,26,16,26z"/>
    <path d="M21,11c-1.1,0-2,0.9-2,2c0,0.4,0.1,0.7,0.3,1L16,17.2l-1.3-1.3C14.9,15.7,15,15.4,15,15c0-1.1-0.9-2-2-2s-2,0.9-2,2c0,0.4,0.1,0.7,0.3,1l3.7,3.7c0.4,0.4,1,0.4,1.4,0l5.3-5.3c0.2-0.3,0.3-0.6,0.3-1C23,11.9,22.1,11,21,11z"/>
  </g>
</svg>